<?xml version="1.0" encoding="UTF-8"?>
<svg xmlns="http://www.w3.org/2000/svg" viewBox="0 0 24 24" fill="none" stroke="#ef4444" stroke-width="2" stroke-linecap="round" stroke-linejoin="round">
  <!-- Brain outline -->
  <path d="M9.5 2a2.5 2.5 0 1 1 0 5 2.5 2.5 0 0 1 0-5Z"/>
  <path d="M14.5 2a2.5 2.5 0 1 0 0 5 2.5 2.5 0 0 0 0-5Z"/>
  <path d="M17.5 8a2.5 2.5 0 1 0 0 5 2.5 2.5 0 0 0 0-5Z"/>
  <path d="M14.5 17a2.5 2.5 0 1 0 0 5 2.5 2.5 0 0 0 0-5Z"/>
  <path d="M9.5 17a2.5 2.5 0 1 1 0 5 2.5 2.5 0 0 1 0-5Z"/>
  <path d="M6.5 8a2.5 2.5 0 1 1 0 5 2.5 2.5 0 0 1 0-5Z"/>
  <!-- Neural connections -->
  <path d="M9.5 4.5v7"/>
  <path d="M14.5 4.5v7"/>
  <path d="M9.5 19.5v-7"/>
  <path d="M14.5 19.5v-7"/>
  <path d="M9 10.5h6"/>
  <path d="M7.5 10.5h-2"/>
  <path d="M18.5 10.5h-2"/>
  <!-- Circuit elements -->
  <circle cx="12" cy="12" r="1" fill="#ef4444"/>
  <circle cx="9.5" cy="7" r="0.5" fill="#ef4444"/>
  <circle cx="14.5" cy="7" r="0.5" fill="#ef4444"/>
  <circle cx="9.5" cy="17" r="0.5" fill="#ef4444"/>
  <circle cx="14.5" cy="17" r="0.5" fill="#ef4444"/>
</svg>
